<mxfile host="Electron" modified="2024-01-05T10:00:29.152Z" agent="Mozilla/5.0 (Windows NT 10.0; Win64; x64) AppleWebKit/537.36 (KHTML, like Gecko) draw.io/22.1.2 Chrome/114.0.5735.289 Electron/25.9.4 Safari/537.36" etag="vX8OGcncZ5o9dKU0WeSU" version="22.1.2" type="device">
  <diagram name="페이지-1" id="rxZyNzaATOAcVzcOFz2M">
    <mxGraphModel dx="1434" dy="836" grid="1" gridSize="10" guides="1" tooltips="1" connect="1" arrows="1" fold="1" page="1" pageScale="1" pageWidth="827" pageHeight="1169" math="0" shadow="0">
      <root>
        <mxCell id="0" />
        <mxCell id="1" parent="0" />
        <mxCell id="2U2TXU8gWQ8vifuCb60h-1" value="SHOW TABLES;" style="rounded=0;whiteSpace=wrap;html=1;fontFamily=a고딕14;" parent="1" vertex="1">
          <mxGeometry x="40" y="40" width="160" height="40" as="geometry" />
        </mxCell>
        <mxCell id="2U2TXU8gWQ8vifuCb60h-2" value="현재 DB에 있는 테이블" style="rounded=0;whiteSpace=wrap;html=1;fontFamily=a고딕14;" parent="1" vertex="1">
          <mxGeometry x="200" y="40" width="260" height="40" as="geometry" />
        </mxCell>
        <mxCell id="2U2TXU8gWQ8vifuCb60h-3" value="DESC student;" style="rounded=0;whiteSpace=wrap;html=1;fontFamily=a고딕14;" parent="1" vertex="1">
          <mxGeometry x="40" y="90" width="160" height="40" as="geometry" />
        </mxCell>
        <mxCell id="2U2TXU8gWQ8vifuCb60h-4" value="STUDENT 테이블의 스키마 조사" style="rounded=0;whiteSpace=wrap;html=1;fontFamily=a고딕14;" parent="1" vertex="1">
          <mxGeometry x="200" y="90" width="260" height="40" as="geometry" />
        </mxCell>
        <mxCell id="2U2TXU8gWQ8vifuCb60h-5" value="&lt;span style=&quot;&quot;&gt;&lt;span style=&quot;white-space: pre;&quot;&gt;&amp;nbsp;&amp;nbsp;&amp;nbsp;&amp;nbsp;&lt;/span&gt;&lt;/span&gt;CREATE TABLE student(&lt;br&gt;&lt;span style=&quot;&quot;&gt;&lt;span style=&quot;white-space: pre;&quot;&gt;&amp;nbsp;&amp;nbsp;&amp;nbsp;&amp;nbsp;&lt;/span&gt;&lt;/span&gt;&lt;span style=&quot;&quot;&gt;&lt;span style=&quot;white-space: pre;&quot;&gt;&amp;nbsp;&amp;nbsp;&amp;nbsp;&amp;nbsp;&lt;/span&gt;&lt;/span&gt;sno int(3) auto_increment PRIMARY KEY,&lt;br&gt;&lt;span style=&quot;white-space: pre;&quot;&gt;&#x9;&lt;/span&gt;name varchar(10) NOT NULL,&lt;br&gt;&lt;span style=&quot;white-space: pre;&quot;&gt;&#x9;&lt;/span&gt;age int(3) CHECK( age&amp;gt;15 and age&amp;lt;100 ),&lt;br&gt;&lt;span style=&quot;white-space: pre;&quot;&gt;&#x9;&lt;/span&gt;jno int(1), &lt;br&gt;&#x9;&lt;span style=&quot;white-space: pre;&quot;&gt;&#x9;&lt;/span&gt;info varchar(30),&lt;br&gt;&lt;span style=&quot;white-space: pre;&quot;&gt;&#x9;&lt;/span&gt;point float(5,2) DEFAULT 100,&lt;br&gt;&lt;span style=&quot;white-space: pre;&quot;&gt;&#x9;&lt;/span&gt;FOREIGN KEY(jno) REFERENCES jo3(jno) &lt;br&gt;&lt;span style=&quot;white-space: pre;&quot;&gt;&#x9;&lt;/span&gt;&lt;span style=&quot;white-space: pre;&quot;&gt;&#x9;&lt;/span&gt;&amp;nbsp;ON DELETE CASCADE&lt;br&gt;&#x9;&#x9;&#x9;&#x9;&#x9;&lt;span style=&quot;white-space: pre;&quot;&gt;&#x9;&lt;/span&gt;&lt;span style=&quot;white-space: pre;&quot;&gt;&#x9;&lt;/span&gt;ON UPDATE CASCADE  //  선택하여 적용 가능&lt;br&gt;&lt;span style=&quot;white-space: pre;&quot;&gt;&#x9;&lt;/span&gt;)" style="rounded=0;whiteSpace=wrap;html=1;fontFamily=a고딕14;align=left;" parent="1" vertex="1">
          <mxGeometry x="130" y="140" width="330" height="180" as="geometry" />
        </mxCell>
        <mxCell id="2U2TXU8gWQ8vifuCb60h-7" value="제약조건" style="rounded=0;whiteSpace=wrap;html=1;fontFamily=a고딕14;" parent="1" vertex="1">
          <mxGeometry x="40" y="510" width="80" height="200" as="geometry" />
        </mxCell>
        <mxCell id="2U2TXU8gWQ8vifuCb60h-8" value="NOT NULL" style="rounded=0;whiteSpace=wrap;html=1;fontFamily=a고딕14;" parent="1" vertex="1">
          <mxGeometry x="120" y="510" width="120" height="40" as="geometry" />
        </mxCell>
        <mxCell id="2U2TXU8gWQ8vifuCb60h-9" value="UNIQUE" style="rounded=0;whiteSpace=wrap;html=1;fontFamily=a고딕14;" parent="1" vertex="1">
          <mxGeometry x="120" y="550" width="120" height="40" as="geometry" />
        </mxCell>
        <mxCell id="2U2TXU8gWQ8vifuCb60h-10" value="PRIMARY KEY" style="rounded=0;whiteSpace=wrap;html=1;fontFamily=a고딕14;" parent="1" vertex="1">
          <mxGeometry x="120" y="590" width="120" height="40" as="geometry" />
        </mxCell>
        <mxCell id="2U2TXU8gWQ8vifuCb60h-11" value="CHECK" style="rounded=0;whiteSpace=wrap;html=1;fontFamily=a고딕14;" parent="1" vertex="1">
          <mxGeometry x="120" y="630" width="120" height="40" as="geometry" />
        </mxCell>
        <mxCell id="2U2TXU8gWQ8vifuCb60h-12" value="FOREIGN KEY" style="rounded=0;whiteSpace=wrap;html=1;fontFamily=a고딕14;" parent="1" vertex="1">
          <mxGeometry x="120" y="670" width="120" height="40" as="geometry" />
        </mxCell>
        <mxCell id="2U2TXU8gWQ8vifuCb60h-13" value="반드시 입력" style="rounded=0;whiteSpace=wrap;html=1;fontFamily=a고딕14;" parent="1" vertex="1">
          <mxGeometry x="240" y="510" width="160" height="40" as="geometry" />
        </mxCell>
        <mxCell id="2U2TXU8gWQ8vifuCb60h-14" value="유일성&amp;nbsp;" style="rounded=0;whiteSpace=wrap;html=1;fontFamily=a고딕14;" parent="1" vertex="1">
          <mxGeometry x="240" y="550" width="160" height="40" as="geometry" />
        </mxCell>
        <mxCell id="2U2TXU8gWQ8vifuCb60h-15" value="UNIQUE + NOT NULL" style="rounded=0;whiteSpace=wrap;html=1;fontFamily=a고딕14;" parent="1" vertex="1">
          <mxGeometry x="240" y="590" width="160" height="40" as="geometry" />
        </mxCell>
        <mxCell id="2U2TXU8gWQ8vifuCb60h-16" value="원하는 조건식 사용가능" style="rounded=0;whiteSpace=wrap;html=1;fontFamily=a고딕14;" parent="1" vertex="1">
          <mxGeometry x="240" y="630" width="160" height="40" as="geometry" />
        </mxCell>
        <mxCell id="2U2TXU8gWQ8vifuCb60h-18" value="외래키(참조키)" style="rounded=0;whiteSpace=wrap;html=1;fontFamily=a고딕14;" parent="1" vertex="1">
          <mxGeometry x="240" y="670" width="160" height="40" as="geometry" />
        </mxCell>
        <mxCell id="2U2TXU8gWQ8vifuCb60h-19" value="편리한기능" style="rounded=0;whiteSpace=wrap;html=1;fontFamily=a고딕14;" parent="1" vertex="1">
          <mxGeometry x="40" y="720" width="80" height="80" as="geometry" />
        </mxCell>
        <mxCell id="2U2TXU8gWQ8vifuCb60h-20" value="DEFAULT" style="rounded=0;whiteSpace=wrap;html=1;fontFamily=a고딕14;" parent="1" vertex="1">
          <mxGeometry x="120" y="720" width="120" height="40" as="geometry" />
        </mxCell>
        <mxCell id="2U2TXU8gWQ8vifuCb60h-21" value="기본값" style="rounded=0;whiteSpace=wrap;html=1;fontFamily=a고딕14;" parent="1" vertex="1">
          <mxGeometry x="240" y="720" width="160" height="40" as="geometry" />
        </mxCell>
        <mxCell id="2U2TXU8gWQ8vifuCb60h-22" value="AUTO_INCREMENT" style="rounded=0;whiteSpace=wrap;html=1;fontFamily=a고딕14;" parent="1" vertex="1">
          <mxGeometry x="120" y="760" width="120" height="40" as="geometry" />
        </mxCell>
        <mxCell id="2U2TXU8gWQ8vifuCb60h-23" value="자동 증가" style="rounded=0;whiteSpace=wrap;html=1;fontFamily=a고딕14;" parent="1" vertex="1">
          <mxGeometry x="240" y="760" width="160" height="40" as="geometry" />
        </mxCell>
        <mxCell id="2U2TXU8gWQ8vifuCb60h-24" value="제약 조건 확인&lt;br&gt;(db에 저장)" style="rounded=0;whiteSpace=wrap;html=1;fontFamily=a고딕14;" parent="1" vertex="1">
          <mxGeometry x="40" y="820" width="80" height="80" as="geometry" />
        </mxCell>
        <mxCell id="2U2TXU8gWQ8vifuCb60h-25" value="&lt;div style=&quot;&quot;&gt;&amp;nbsp; &amp;nbsp; SELECT constraint_name, constraint_type&lt;/div&gt;&lt;div&gt;&amp;nbsp; &amp;nbsp; FROM information_schema.table_constraints&lt;/div&gt;&lt;div&gt;&amp;nbsp; &amp;nbsp; WHERE table_name = &#39;student&#39;;&lt;/div&gt;" style="rounded=0;whiteSpace=wrap;html=1;fontFamily=a고딕14;align=left;" parent="1" vertex="1">
          <mxGeometry x="120" y="820" width="280" height="80" as="geometry" />
        </mxCell>
        <mxCell id="fqVp_BPTmGQ7C9Fw5Mzp-1" value="CREATE" style="rounded=0;whiteSpace=wrap;html=1;fontFamily=a고딕14;" vertex="1" parent="1">
          <mxGeometry x="40" y="140" width="90" height="180" as="geometry" />
        </mxCell>
        <mxCell id="fqVp_BPTmGQ7C9Fw5Mzp-4" value="DROP" style="rounded=0;whiteSpace=wrap;html=1;fontFamily=a고딕14;" vertex="1" parent="1">
          <mxGeometry x="40" y="320" width="90" height="60" as="geometry" />
        </mxCell>
        <mxCell id="fqVp_BPTmGQ7C9Fw5Mzp-5" value="&amp;nbsp; &amp;nbsp; DROP TABLE student;" style="rounded=0;whiteSpace=wrap;html=1;fontFamily=a고딕14;verticalAlign=middle;align=left;" vertex="1" parent="1">
          <mxGeometry x="130" y="320" width="330" height="60" as="geometry" />
        </mxCell>
        <mxCell id="fqVp_BPTmGQ7C9Fw5Mzp-10" value="TRUNCATE" style="rounded=0;whiteSpace=wrap;html=1;fontFamily=a고딕14;" vertex="1" parent="1">
          <mxGeometry x="40" y="380" width="90" height="60" as="geometry" />
        </mxCell>
        <mxCell id="fqVp_BPTmGQ7C9Fw5Mzp-11" value="&amp;nbsp; &amp;nbsp; TRUNCATE student;" style="rounded=0;whiteSpace=wrap;html=1;fontFamily=a고딕14;verticalAlign=middle;align=left;" vertex="1" parent="1">
          <mxGeometry x="130" y="380" width="330" height="60" as="geometry" />
        </mxCell>
        <mxCell id="fqVp_BPTmGQ7C9Fw5Mzp-12" value="ALTER" style="rounded=0;whiteSpace=wrap;html=1;fontFamily=a고딕14;" vertex="1" parent="1">
          <mxGeometry x="40" y="440" width="90" height="60" as="geometry" />
        </mxCell>
        <mxCell id="fqVp_BPTmGQ7C9Fw5Mzp-13" value="&amp;nbsp; &amp;nbsp; ALTER TABLE student ADD Birth VARCHAR(6)" style="rounded=0;whiteSpace=wrap;html=1;fontFamily=a고딕14;verticalAlign=middle;align=left;" vertex="1" parent="1">
          <mxGeometry x="130" y="440" width="330" height="60" as="geometry" />
        </mxCell>
      </root>
    </mxGraphModel>
  </diagram>
</mxfile>
